<svg width="303" height="89" viewBox="0 0 303 89" fill="none" xmlns="http://www.w3.org/2000/svg">
<path d="M20.3594 6.27344C20.3594 9.17188 18.6823 11.4414 15.3281 13.082C15.9115 18.0404 16.4401 22.069 16.9141 25.168C17.5703 29.3789 18.4818 32.3867 19.6484 34.1914C20.6693 35.9049 21.8359 36.9805 23.1484 37.418C23.5495 37.5091 23.7591 37.6641 23.7773 37.8828C23.7591 38.1016 23.349 38.2201 22.5469 38.2383C21.1615 38.2201 19.7669 37.3815 18.3633 35.7227C16.9596 34.082 15.9935 32.3867 15.4648 30.6367C15.4102 30.4909 15.3737 30.3542 15.3555 30.2266C14.3164 26.8906 13.3958 21.5677 12.5938 14.2578L11.1719 14.75C8.47396 23.2995 6.66927 29.9349 5.75781 34.6562C5.61198 35.0573 5.46615 35.276 5.32031 35.3125C5.01042 35.2943 4.64583 35.0664 4.22656 34.6289C3.82552 34.1914 3.61589 33.6992 3.59766 33.1523C3.59766 32.5872 4.22656 29.8346 5.48438 24.8945C6.74219 19.9544 8.68359 13.1185 11.3086 4.38672C11.3997 4.07682 11.5547 3.78516 11.7734 3.51172C12.5208 2.58203 13.7513 2.11719 15.4648 2.11719C16.4674 2.11719 17.5339 2.48177 18.6641 3.21094C19.7943 3.9401 20.3594 4.96094 20.3594 6.27344ZM13.6328 5.125C13.4688 6.01823 13.1133 7.42188 12.5664 9.33594C12.0195 11.2318 11.7188 12.2617 11.6641 12.4258C12.3021 12.2982 12.9401 12.1068 13.5781 11.8516C16.1302 10.7943 17.3971 9.15365 17.3789 6.92969C17.3789 6.82031 17.3698 6.67448 17.3516 6.49219C17.151 5.2526 16.6224 4.63281 15.7656 4.63281C14.9089 4.63281 14.1979 4.79688 13.6328 5.125ZM27.4688 20.6016C27.8333 20.5469 28.6172 19.763 29.8203 18.25C31.0234 16.737 31.625 15.5521 31.625 14.6953C31.625 14.5677 31.5794 14.4219 31.4883 14.2578C31.1237 14.6224 30.3581 15.6615 29.1914 17.375C28.043 19.0885 27.4688 20.1641 27.4688 20.6016ZM38.3516 24.6758C39.263 23.6914 39.7734 23.5182 39.8828 24.1562C39.8828 24.3932 39.737 24.7852 39.4453 25.332C38.5521 26.9909 37.1849 28.75 35.3438 30.6094C32.4271 33.5625 29.8477 35.0391 27.6055 35.0391C26.5482 35.0391 25.6458 34.7383 24.8984 34.1367C23.4948 32.9883 22.793 30.9922 22.793 28.1484C22.793 26.526 23.2852 24.2474 24.2695 21.3125C25.2721 18.3594 26.8034 15.6888 28.8633 13.3008C29.7747 12.1341 30.7227 11.5508 31.707 11.5508C32.181 11.5508 32.6732 11.651 33.1836 11.8516C34.3867 12.3438 34.9883 13.1367 34.9883 14.2305C34.9883 14.3945 34.9336 14.6589 34.8242 15.0234C34.0768 16.5 32.8737 18.2044 31.2148 20.1367C29.556 22.069 27.8698 23.6094 26.1562 24.7578C25.5729 26.8724 25.2812 28.5221 25.2812 29.707C25.2812 30.8919 25.3086 31.6484 25.3633 31.9766C25.5273 32.7422 26.138 33.125 27.1953 33.125C28.2526 33.125 29.474 32.6419 30.8594 31.6758C32.2448 30.6914 33.7214 29.3971 35.2891 27.793C36.8568 26.1888 37.7409 25.2865 37.9414 25.0859C38.1602 24.8854 38.2969 24.7487 38.3516 24.6758ZM46.0352 12.4805C48.3685 12.4805 49.5352 13.237 49.5352 14.75C49.4622 15.5339 48.8333 17.1927 47.6484 19.7266C46.4635 22.2422 45.5885 23.5 45.0234 23.5C44.75 23.4453 44.5768 23.2995 44.5039 23.0625C44.5039 22.9167 44.5951 22.7435 44.7773 22.543C44.9596 22.3424 45.1784 21.9779 45.4336 21.4492C46.2357 19.8451 46.6367 18.4961 46.6367 17.4023C46.6367 16.3086 46.4818 15.543 46.1719 15.1055C45.6797 15.1237 45.1055 15.625 44.4492 16.6094C43.2643 18.4505 42.2344 20.8568 41.3594 23.8281C40.5026 26.7995 40.0742 29.151 40.0742 30.8828C40.0742 31.2292 40.0833 31.5026 40.1016 31.7031C40.1745 32.9427 40.694 33.5625 41.6602 33.5625C44.5768 33.5625 48.5234 31.0286 53.5 25.9609C54.5026 24.9583 55.0586 24.7396 55.168 25.3047C55.168 25.6146 54.9857 26.0703 54.6211 26.6719C53.6732 28.2396 52.2057 29.8893 50.2188 31.6211C47.2839 34.1914 44.7682 35.4766 42.6719 35.4766C41.2865 35.4583 40.1745 34.9388 39.3359 33.918C38.4974 32.9154 37.9688 31.9036 37.75 30.8828C37.2214 28.4219 37.5404 25.9336 38.707 23.418C38.7435 23.3451 38.9258 22.9531 39.2539 22.2422C41.1862 17.9583 42.9635 14.9049 44.5859 13.082C44.9505 12.6992 45.4336 12.4987 46.0352 12.4805ZM60.5273 14.8047C59.6159 14.9505 58.4401 17.2292 57 21.6406C55.5599 26.0521 54.8398 28.6589 54.8398 29.4609C54.8398 30.263 54.9128 30.6641 55.0586 30.6641C55.8242 30.6641 57.0182 29.0234 58.6406 25.7422C60.263 22.4427 61.0742 19.4258 61.0742 16.6914C61.0742 15.4518 60.8919 14.8229 60.5273 14.8047ZM60.0898 11.4141C60.6003 11.4141 61.0378 11.5599 61.4023 11.8516C62.0404 12.3984 62.3594 13.4557 62.3594 15.0234C62.3594 22.1875 61.0833 27.556 58.5312 31.1289L58.1484 31.7031C56.5625 34 55.2865 35.1484 54.3203 35.1484C53.1354 35.0208 52.4518 34.1549 52.2695 32.5508C52.2695 31.2201 52.8073 28.5221 53.8828 24.457C54.9766 20.3919 56.2253 16.8737 57.6289 13.9023C58.431 12.2617 59.2513 11.4323 60.0898 11.4141ZM75.4297 16.8008L75.375 17.1562L75.3203 17.4844C75.3203 17.9219 74.6823 19.6719 73.4062 22.7344C72.112 25.7969 71.474 27.9661 71.4922 29.2422C71.5286 31.4115 72.0573 32.5052 73.0781 32.5234C74.099 32.5234 75.5938 31.3841 77.5625 29.1055C79.9323 26.3711 81.3815 24.3112 81.9102 22.9258C82.4388 21.5586 82.849 20.875 83.1406 20.875C83.3776 20.8932 83.5052 21.1484 83.5234 21.6406C83.5234 22.1146 83.4688 22.4792 83.3594 22.7344L83.0859 23.4727C82.3021 25.4779 81.0716 27.5651 79.3945 29.7344C76.9701 32.9245 74.8099 34.5195 72.9141 34.5195C72.3125 34.5195 71.7656 34.3646 71.2734 34.0547C70.0339 33.2708 69.4141 31.7943 69.4141 29.625C69.4141 28.9141 69.569 27.8203 69.8789 26.3438C70.207 24.8672 70.362 24.0742 70.3438 23.9648C70.3438 23.8372 70.1797 23.7005 69.8516 23.5547C69.1953 23.263 68.7578 23.2266 68.5391 23.4453C68.3568 23.7005 67.5456 25.6693 66.1055 29.3516C64.6836 33.0339 63.7083 34.875 63.1797 34.875C63.0156 34.875 62.7057 34.7656 62.25 34.5469C61.776 34.3281 61.5391 34.0273 61.5391 33.6445C61.5391 33.5716 61.776 33.0156 62.25 31.9766L63.7539 28.5039C64.8112 26.0612 66.0508 22.8073 67.4727 18.7422L71.1094 8.46094C71.2005 8.20573 71.4922 8.06901 71.9844 8.05078L72.6953 8.02344C73.5703 8.02344 74.0078 8.34245 74.0078 8.98047C74.0078 9.29036 73.5339 10.6576 72.5859 13.082C71.638 15.5065 71.0273 17.375 70.7539 18.6875L70.6719 19.5078C70.6719 19.7448 70.7174 19.8815 70.8086 19.918C70.8633 19.8997 71.0911 19.4987 71.4922 18.7148L72.2031 17.3203C72.3125 17.1562 72.4219 16.9375 72.5312 16.6641C72.9323 15.9167 73.4062 15.543 73.9531 15.543C74.901 15.5612 75.3932 15.9531 75.4297 16.7188V16.8008ZM92.1641 16.8008L92.1094 17.1562L92.0547 17.4844C92.0547 17.9219 91.4167 19.6719 90.1406 22.7344C88.8464 25.7969 88.2083 27.9661 88.2266 29.2422C88.263 31.4115 88.7917 32.5052 89.8125 32.5234C90.8333 32.5234 92.3281 31.3841 94.2969 29.1055C96.6667 26.3711 98.1159 24.3112 98.6445 22.9258C99.1732 21.5586 99.5833 20.875 99.875 20.875C100.112 20.8932 100.24 21.1484 100.258 21.6406C100.258 22.1146 100.203 22.4792 100.094 22.7344L99.8203 23.4727C99.0365 25.4779 97.806 27.5651 96.1289 29.7344C93.7044 32.9245 91.5443 34.5195 89.6484 34.5195C89.0469 34.5195 88.5 34.3646 88.0078 34.0547C86.7682 33.2708 86.1484 31.7943 86.1484 29.625C86.1484 28.9141 86.3034 27.8203 86.6133 26.3438C86.9414 24.8672 87.0964 24.0742 87.0781 23.9648C87.0781 23.8372 86.9141 23.7005 86.5859 23.5547C85.9297 23.263 85.4922 23.2266 85.2734 23.4453C85.0911 23.7005 84.2799 25.6693 82.8398 29.3516C81.418 33.0339 80.4427 34.875 79.9141 34.875C79.75 34.875 79.4401 34.7656 78.9844 34.5469C78.5104 34.3281 78.2734 34.0273 78.2734 33.6445C78.2734 33.5716 78.5104 33.0156 78.9844 31.9766L80.4883 28.5039C81.5456 26.0612 82.7852 22.8073 84.207 18.7422L87.8438 8.46094C87.9349 8.20573 88.2266 8.06901 88.7188 8.05078L89.4297 8.02344C90.3047 8.02344 90.7422 8.34245 90.7422 8.98047C90.7422 9.29036 90.2682 10.6576 89.3203 13.082C88.3724 15.5065 87.7617 17.375 87.4883 18.6875L87.4062 19.5078C87.4062 19.7448 87.4518 19.8815 87.543 19.918C87.5977 19.8997 87.8255 19.4987 88.2266 18.7148L88.9375 17.3203C89.0469 17.1562 89.1562 16.9375 89.2656 16.6641C89.6667 15.9167 90.1406 15.543 90.6875 15.543C91.6354 15.5612 92.1276 15.9531 92.1641 16.7188V16.8008ZM106.82 7.94141C107.641 7.44922 108.944 5.76302 110.73 2.88281C110.967 2.60938 111.186 2.46354 111.387 2.44531C111.879 2.44531 112.28 2.85547 112.59 3.67578C112.699 4.00391 112.763 4.28646 112.781 4.52344C112.781 5.47135 111.469 6.78385 108.844 8.46094C107.039 9.59115 105.964 10.1562 105.617 10.1562C105.289 10.1562 104.97 10.0195 104.66 9.74609C104.46 9.54557 104.368 9.36328 104.387 9.19922C104.405 9.03516 104.469 8.9349 104.578 8.89844C105.38 8.82552 106.128 8.50651 106.82 7.94141ZM103.102 20.6016C103.466 20.5469 104.25 19.763 105.453 18.25C106.656 16.737 107.258 15.5521 107.258 14.6953C107.258 14.5677 107.212 14.4219 107.121 14.2578C106.757 14.6224 105.991 15.6615 104.824 17.375C103.676 19.0885 103.102 20.1641 103.102 20.6016ZM113.984 24.6758C114.896 23.6914 115.406 23.5182 115.516 24.1562C115.516 24.3932 115.37 24.7852 115.078 25.332C114.185 26.9909 112.818 28.75 110.977 30.6094C108.06 33.5625 105.48 35.0391 103.238 35.0391C102.181 35.0391 101.279 34.7383 100.531 34.1367C99.1276 32.9883 98.4258 30.9922 98.4258 28.1484C98.4258 26.526 98.918 24.2474 99.9023 21.3125C100.905 18.3594 102.436 15.6888 104.496 13.3008C105.408 12.1341 106.355 11.5508 107.34 11.5508C107.814 11.5508 108.306 11.651 108.816 11.8516C110.02 12.3438 110.621 13.1367 110.621 14.2305C110.621 14.3945 110.566 14.6589 110.457 15.0234C109.71 16.5 108.507 18.2044 106.848 20.1367C105.189 22.069 103.503 23.6094 101.789 24.7578C101.206 26.8724 100.914 28.5221 100.914 29.707C100.914 30.8919 100.941 31.6484 100.996 31.9766C101.16 32.7422 101.771 33.125 102.828 33.125C103.885 33.125 105.107 32.6419 106.492 31.6758C107.878 30.6914 109.354 29.3971 110.922 27.793C112.49 26.1888 113.374 25.2865 113.574 25.0859C113.793 24.8854 113.93 24.7487 113.984 24.6758ZM137.418 11.6328C138.439 11.6328 138.977 11.9245 139.031 12.5078C139.031 12.6901 138.685 14.0755 137.992 16.6641C137.992 16.6641 137.564 18.2044 136.707 21.2852C136.434 22.3242 136.078 24.0469 135.641 26.4531C135.221 28.8411 134.784 31.0286 134.328 33.0156C132.505 40.9271 130.582 46.4779 128.559 49.668C127.957 50.6159 127.21 51.5273 126.316 52.4023C124.329 54.3711 122.488 55.3555 120.793 55.3555C119.991 55.3555 119.59 55.1641 119.59 54.7812C119.608 54.6354 119.863 54.4987 120.355 54.3711C120.848 54.2617 121.385 54.043 121.969 53.7148C123.609 52.7305 124.858 51.3815 125.715 49.668C129.142 43.8164 131.621 35.3581 133.152 24.293C132.624 25.9154 131.539 28.0391 129.898 30.6641C128.276 33.2708 126.772 34.5742 125.387 34.5742C124.639 34.5742 124.275 33.8268 124.293 32.332C124.348 27.6471 125.952 21.0391 129.105 12.5078C129.233 12.1615 129.352 11.8698 129.461 11.6328C129.734 11.0495 130.026 10.7578 130.336 10.7578C130.664 10.7578 130.947 10.7852 131.184 10.8398C132.132 11.0404 132.615 11.4232 132.633 11.9883C132.633 12.1159 132.505 12.5625 132.25 13.3281L130.91 17.2383C128.777 23.3997 127.501 27.7201 127.082 30.1992C128.322 28.3034 130.026 25.2044 132.195 20.9023C134.383 16.6003 135.568 14.276 135.75 13.9297C135.969 13.5833 136.133 13.2643 136.242 12.9727L136.461 12.3984C136.68 11.888 136.999 11.6328 137.418 11.6328ZM172.145 14.0938C172.145 14.0938 169.638 14.0938 164.625 14.0938C164.953 14.9688 165.126 15.5247 165.145 15.7617C164.579 18.8242 163.859 21.7591 162.984 24.5664C160.888 31.1836 158.609 34.4922 156.148 34.4922C154.927 34.474 154.307 32.7786 154.289 29.4062C154.289 26.0156 154.763 22.2422 155.711 18.0859C155.82 17.612 156.395 16.7552 157.434 15.5156C158.6 14.112 159.22 13.1367 159.293 12.5898C159.384 12.043 159.484 11.7695 159.594 11.7695L159.867 11.9062L160.551 15.8984C159.73 17.6302 158.883 19.9818 158.008 22.9531C157.133 25.9245 156.686 28.1029 156.668 29.4883C156.668 29.8893 156.786 30.099 157.023 30.1172C157.188 30.1172 157.379 30.026 157.598 29.8438C158.582 29.0052 159.749 26.7721 161.098 23.1445C162.465 19.5169 163.148 16.9831 163.148 15.543C163.148 15.1419 162.93 14.1758 162.492 12.6445C163.039 12.7721 163.659 12.8359 164.352 12.8359C165.044 12.8359 166.238 12.6354 167.934 12.2344C169.629 11.8333 170.887 11.6146 171.707 11.5781C172.527 11.5417 173.184 11.7148 173.676 12.0977C174.168 12.4805 174.195 13 173.758 13.6562C173.594 13.9115 173.056 14.0573 172.145 14.0938ZM175.809 8.78906C175.717 8.7526 175.49 8.60677 175.125 8.35156C174.688 8.04167 174.469 7.8138 174.469 7.66797C174.469 7.17578 175.152 6.01823 176.52 4.19531C177.887 2.3724 178.661 1.27865 178.844 0.914062C179.299 0.458333 179.928 0.686198 180.73 1.59766C181.368 2.36328 181.569 2.98307 181.332 3.45703C181.204 3.93099 180.43 4.93359 179.008 6.46484C177.586 7.99609 176.52 8.77083 175.809 8.78906ZM182.344 25.9609C181.669 27.8568 180.329 29.7891 178.324 31.7578C175.954 34.0911 173.967 35.2578 172.363 35.2578C170.194 35.2578 168.836 34.0273 168.289 31.5664C168.125 30.819 168.043 30.0078 168.043 29.1328C168.025 26.3073 168.562 23.0352 169.656 19.3164C171.023 14.6133 172.318 12.2617 173.539 12.2617C174.141 12.2617 174.578 12.4076 174.852 12.6992C175.143 12.9727 175.289 13.1732 175.289 13.3008C175.289 13.8841 174.697 15.3242 173.512 17.6211C172.327 19.8997 171.589 21.5586 171.297 22.5977C171.023 23.6185 170.814 24.9583 170.668 26.6172C170.54 28.2578 170.477 29.3151 170.477 29.7891C170.477 31.3932 170.668 32.3958 171.051 32.7969C171.452 33.1979 171.935 33.4076 172.5 33.4258C174.104 33.4258 176.018 32.0312 178.242 29.2422C179.318 27.875 180.156 26.6172 180.758 25.4688C181.031 25.0312 181.314 24.8125 181.605 24.8125C182.098 24.8854 182.371 25.1315 182.426 25.5508C182.426 25.6055 182.398 25.7422 182.344 25.9609ZM191.312 14.8867C191.312 17.5299 190.583 18.888 189.125 18.9609C188.76 18.9609 188.414 18.8698 188.086 18.6875C188.232 21.8958 188.305 25.0221 188.305 28.0664C188.305 31.1107 187.73 33.2708 186.582 34.5469C185.926 35.276 185.078 35.6406 184.039 35.6406C183.018 35.6589 182.243 35.3034 181.715 34.5742C181.186 33.8633 180.922 33.1615 180.922 32.4688C180.958 31.612 181.505 31.1745 182.562 31.1562C183.237 31.1562 183.529 31.6211 183.438 32.5508C183.346 33.4805 183.565 33.9453 184.094 33.9453C185.078 33.9453 185.68 32.6966 185.898 30.1992C186.008 29.0508 186.053 27.4557 186.035 25.4141C186.035 23.3724 185.871 22.3424 185.543 22.3242C185.397 22.3242 185.197 22.5703 184.941 23.0625C184.686 23.5365 184.066 24.5208 183.082 26.0156C182.116 27.5104 181.277 28.6224 180.566 29.3516C179.855 30.0807 179.391 30.4818 179.172 30.5547C178.661 30.737 178.37 30.5729 178.297 30.0625C178.315 29.5156 178.598 28.8776 179.145 28.1484C181.113 25.5417 183.009 22.5339 184.832 19.125C185.251 18.3411 185.461 17.8854 185.461 17.7578V13.8203C185.461 13.0729 185.826 12.4987 186.555 12.0977C186.865 11.9336 187.156 11.8516 187.43 11.8516C188.56 11.8698 189.608 12.207 190.574 12.8633C191.03 13.1914 191.267 13.556 191.285 13.957C191.303 14.3581 191.312 14.668 191.312 14.8867ZM187.867 16.7188C188.487 16.6094 188.842 16.3997 188.934 16.0898C189.043 15.7617 189.098 15.4427 189.098 15.1328C189.098 14.8047 189.079 14.5586 189.043 14.3945C188.496 14.3945 188.122 14.7773 187.922 15.543C187.849 15.7982 187.812 16.0352 187.812 16.2539C187.812 16.4727 187.831 16.6276 187.867 16.7188ZM200.473 8.78906C200.382 8.7526 200.154 8.60677 199.789 8.35156C199.352 8.04167 199.133 7.8138 199.133 7.66797C199.133 7.17578 199.816 6.01823 201.184 4.19531C202.551 2.3724 203.326 1.27865 203.508 0.914062C203.964 0.458333 204.592 0.686198 205.395 1.59766C206.033 2.36328 206.233 2.98307 205.996 3.45703C205.868 3.93099 205.094 4.93359 203.672 6.46484C202.25 7.99609 201.184 8.77083 200.473 8.78906ZM207.008 25.9609C206.333 27.8568 204.993 29.7891 202.988 31.7578C200.618 34.0911 198.632 35.2578 197.027 35.2578C194.858 35.2578 193.5 34.0273 192.953 31.5664C192.789 30.819 192.707 30.0078 192.707 29.1328C192.689 26.3073 193.227 23.0352 194.32 19.3164C195.688 14.6133 196.982 12.2617 198.203 12.2617C198.805 12.2617 199.242 12.4076 199.516 12.6992C199.807 12.9727 199.953 13.1732 199.953 13.3008C199.953 13.8841 199.361 15.3242 198.176 17.6211C196.991 19.8997 196.253 21.5586 195.961 22.5977C195.688 23.6185 195.478 24.9583 195.332 26.6172C195.204 28.2578 195.141 29.3151 195.141 29.7891C195.141 31.3932 195.332 32.3958 195.715 32.7969C196.116 33.1979 196.599 33.4076 197.164 33.4258C198.768 33.4258 200.682 32.0312 202.906 29.2422C203.982 27.875 204.82 26.6172 205.422 25.4688C205.695 25.0312 205.978 24.8125 206.27 24.8125C206.762 24.8854 207.035 25.1315 207.09 25.5508C207.09 25.6055 207.062 25.7422 207.008 25.9609ZM214.363 12.8633L224.18 12.6445C224.38 12.6445 224.599 12.8268 224.836 13.1914C225.073 13.5378 225.201 14.0117 225.219 14.6133C225.201 15.0143 224.681 15.224 223.66 15.2422C220.634 15.3151 216.97 15.6797 212.668 16.3359C212.358 17.2292 211.857 18.5143 211.164 20.1914C208.12 27.556 206.598 32.724 206.598 35.6953C206.598 37.1719 206.88 38.5938 207.445 39.9609C208.43 42.2578 209.897 43.4062 211.848 43.4062C213.361 43.4062 214.628 43.0143 215.648 42.2305C216.688 41.4648 217.909 40.1979 219.312 38.4297C219.75 37.8646 220.206 37.6641 220.68 37.8281C221.135 38.0286 221.363 38.4206 221.363 39.0039C221.363 40.681 220.397 42.0755 218.465 43.1875C216.533 44.3177 214.454 44.8828 212.23 44.8828C210.025 44.8828 208.111 44.0716 206.488 42.4492C204.884 40.8268 204.082 38.6667 204.082 35.9688C204.082 34.1641 204.31 32.2318 204.766 30.1719C205.221 28.112 206.051 25.5508 207.254 22.4883C208.457 19.4076 209.241 17.3568 209.605 16.3359C205.832 16.3359 203.727 16.2904 203.289 16.1992C201.94 15.9076 201.257 15.3333 201.238 14.4766C201.257 14.2031 201.466 14.0299 201.867 13.957L210.754 13.2188L216.605 3.375C217.28 2.24479 217.891 1.67969 218.438 1.67969C218.656 1.67969 218.911 1.71615 219.203 1.78906C220.279 2.02604 220.816 2.41797 220.816 2.96484C220.816 3.49349 220.27 4.3138 219.176 5.42578C218.082 6.53776 217.408 7.2487 217.152 7.55859C216.296 8.61589 215.366 10.3841 214.363 12.8633ZM233.148 7.94141C233.969 7.44922 235.272 5.76302 237.059 2.88281C237.296 2.60938 237.514 2.46354 237.715 2.44531C238.207 2.44531 238.608 2.85547 238.918 3.67578C239.027 4.00391 239.091 4.28646 239.109 4.52344C239.109 5.47135 237.797 6.78385 235.172 8.46094C233.367 9.59115 232.292 10.1562 231.945 10.1562C231.617 10.1562 231.298 10.0195 230.988 9.74609C230.788 9.54557 230.697 9.36328 230.715 9.19922C230.733 9.03516 230.797 8.9349 230.906 8.89844C231.708 8.82552 232.456 8.50651 233.148 7.94141ZM232.82 16.1445C229.904 16.6367 227.361 18.5508 225.191 21.8867C223.077 25.1315 221.965 28.3398 221.855 31.5117C226.03 26.0065 229.685 20.8841 232.82 16.1445ZM231.562 13.8203L233.176 14.0391C233.431 14.0391 233.695 13.8932 233.969 13.6016C234.26 13.3099 234.625 13.1641 235.062 13.1641C235.518 13.1641 235.874 13.2826 236.129 13.5195C236.402 13.7565 236.539 13.9661 236.539 14.1484C236.539 14.3125 236.448 14.5951 236.266 14.9961C236.083 15.3971 235.974 15.6615 235.938 15.7891C233.513 23.3906 232.301 28.2396 232.301 30.3359C232.319 31.0651 232.483 31.4388 232.793 31.457C233.905 31.457 235.646 29.9987 238.016 27.082C239.602 25.1315 240.622 23.7005 241.078 22.7891C241.552 21.8776 241.926 21.3945 242.199 21.3398C242.254 21.3398 242.299 21.3307 242.336 21.3125C242.664 21.349 242.837 21.5404 242.855 21.8867C242.855 22.543 242.099 24.0195 240.586 26.3164C237.359 31.2383 234.57 33.6992 232.219 33.6992C230.523 33.6992 229.676 32.5143 229.676 30.1445C229.676 29.0143 229.904 27.6107 230.359 25.9336C230.815 24.2383 231.089 23.181 231.18 22.7617C230.76 23.3086 229.357 25.2956 226.969 28.7227C224.581 32.1497 222.867 34.1732 221.828 34.793C221.5 34.9753 221.217 35.0755 220.98 35.0938C219.941 35.0938 219.185 34.6836 218.711 33.8633C218.492 33.4622 218.383 32.888 218.383 32.1406C218.365 31.375 218.921 29.625 220.051 26.8906C221.874 22.4792 223.943 19.0794 226.258 16.6914C228.081 14.832 229.849 13.875 231.562 13.8203Z" fill="white"/>
<path d="M15.308 51.04H23.624L38.212 88H29.28L26.592 80.58H12.368L9.652 88H0.692L15.308 51.04ZM15.168 73.244H23.82L19.536 61.12H19.452L15.168 73.244ZM40.9998 51.04H56.0638C58.2104 51.04 60.1238 51.488 61.8038 52.384C63.4838 53.28 64.8091 54.5773 65.7798 56.276C66.7691 57.956 67.2638 59.9627 67.2638 62.296C67.2638 64.6293 66.8438 66.5427 66.0038 68.036C65.1824 69.5107 64.1931 70.6213 63.0358 71.368C61.8784 72.096 60.8051 72.5347 59.8158 72.684L68.8038 88H59.3958L51.3878 73.328H49.3718V88H40.9998V51.04ZM49.3718 67.532H53.0678C54.5611 67.532 55.8678 67.168 56.9878 66.44C58.1078 65.712 58.6678 64.424 58.6678 62.576C58.6678 60.728 58.1171 59.4493 57.0158 58.74C55.9144 58.012 54.6171 57.648 53.1238 57.648H49.3718V67.532ZM89.8676 67.336H108.712V69.688C108.712 72.3387 108.264 74.812 107.368 77.108C106.49 79.404 105.23 81.42 103.588 83.156C101.945 84.892 99.985 86.2453 97.7076 87.216C95.4303 88.1867 92.9103 88.672 90.1476 88.672C87.2916 88.672 84.697 88.1867 82.3636 87.216C80.049 86.2267 78.0516 84.8547 76.3716 83.1C74.6916 81.3453 73.4036 79.3107 72.5076 76.996C71.6116 74.6627 71.1636 72.1613 71.1636 69.492C71.1636 66.8413 71.6116 64.3587 72.5076 62.044C73.4036 59.7107 74.6916 57.676 76.3716 55.94C78.0516 54.1853 80.049 52.8227 82.3636 51.852C84.697 50.8627 87.2916 50.368 90.1476 50.368C92.481 50.368 94.5343 50.62 96.3076 51.124C98.0996 51.628 99.6396 52.3 100.928 53.14C102.216 53.98 103.308 54.904 104.204 55.912C105.1 56.9013 105.846 57.872 106.444 58.824L98.4916 62.576C97.7263 61.4 96.681 60.3733 95.3556 59.496C94.049 58.6187 92.313 58.18 90.1476 58.18C88.6356 58.18 87.245 58.4787 85.9756 59.076C84.725 59.6733 83.6423 60.4947 82.7276 61.54C81.813 62.5667 81.1036 63.7707 80.5996 65.152C80.1143 66.5147 79.8716 67.9613 79.8716 69.492C79.8716 71.0413 80.1143 72.4973 80.5996 73.86C81.1036 75.2227 81.813 76.4267 82.7276 77.472C83.6423 78.5173 84.725 79.3387 85.9756 79.936C87.245 80.5147 88.6356 80.804 90.1476 80.804C91.473 80.804 92.677 80.636 93.7596 80.3C94.8423 79.964 95.7756 79.4787 96.5596 78.844C97.3623 78.2093 97.9876 77.4627 98.4356 76.604C98.9023 75.7267 99.1823 74.7653 99.2756 73.72H89.8676V67.336ZM113.519 51.04H137.123V58.376H121.863V65.908H136.983V73.02H121.863V80.664H137.123V88H113.519V51.04ZM151.189 58.712L151.805 58.824V88H143.433V51.04H154.857L169.837 80.16L169.221 80.272V51.04H177.593V88H166.113L151.189 58.712ZM190.79 58.376H181.97V51.04H207.954V58.376H199.162V88H190.79V58.376ZM212.757 51.04H221.129V88H212.757V51.04ZM235.353 58.712L235.969 58.824V88H227.597V51.04H239.021L254.001 80.16L253.385 80.272V51.04H261.757V88H250.277L235.353 58.712ZM280.05 51.04H288.366L302.954 88H294.022L291.334 80.58H277.11L274.394 88H265.434L280.05 51.04ZM279.91 73.244H288.562L284.278 61.12H284.194L279.91 73.244Z" fill="white"/>
</svg>

